<svg xmlns="http://www.w3.org/2000/svg" xmlns:xlink="http://www.w3.org/1999/xlink" contentStyleType="text/css" data-diagram-type="CLASS" height="593px" preserveAspectRatio="none" style="width:361px;height:593px;background:#FFFFFF;" version="1.1" viewBox="0 0 361 593" width="361px" zoomAndPan="magnify"><defs/><g><!--class Libro--><g class="entity" data-entity="Libro" data-source-line="29" data-uid="ent0002" id="entity_Libro"><rect fill="#F1F1F1" height="312.1406" rx="2.5" ry="2.5" style="stroke:#181818;stroke-width:0.5;" width="347.0293" x="7" y="274"/><ellipse cx="160.6992" cy="290" fill="#ADD1B2" rx="11" ry="11" style="stroke:#181818;stroke-width:1;"/><path d="M163.4648,285.875 Q163.6211,285.6563 163.8086,285.5469 Q163.9961,285.4375 164.2148,285.4375 Q164.5898,285.4375 164.8242,285.7031 Q165.0586,285.9531 165.0586,286.5625 L165.0586,288.0156 Q165.0586,288.625 164.8242,288.8906 Q164.5898,289.1563 164.2148,289.1563 Q163.8711,289.1563 163.668,288.9531 Q163.4648,288.7656 163.3555,288.25 Q163.3086,287.8906 163.1211,287.7031 Q162.793,287.3281 162.1836,287.1094 Q161.5742,286.8906 160.9492,286.8906 Q160.1836,286.8906 159.543,287.2188 Q158.918,287.5469 158.418,288.2969 Q157.9336,289.0469 157.9336,290.0781 L157.9336,291.1719 Q157.9336,292.4063 158.8242,293.2344 Q159.7148,294.0469 161.3086,294.0469 Q162.2461,294.0469 162.9023,293.7969 Q163.293,293.6406 163.7148,293.2031 Q163.9805,292.9375 164.1211,292.8594 Q164.2773,292.7813 164.4805,292.7813 Q164.8086,292.7813 165.0586,293.0469 Q165.3242,293.2969 165.3242,293.6406 Q165.3242,293.9844 164.9805,294.3906 Q164.4805,294.9688 163.6836,295.2969 Q162.6055,295.75 161.3086,295.75 Q159.793,295.75 158.5898,295.125 Q157.6055,294.625 156.918,293.5625 Q156.2305,292.4844 156.2305,291.2031 L156.2305,290.0469 Q156.2305,288.7188 156.8398,287.5781 Q157.4648,286.4219 158.5586,285.8125 Q159.6523,285.1875 160.8867,285.1875 Q161.6211,285.1875 162.2617,285.3594 Q162.918,285.5156 163.4648,285.875 Z " fill="#000000"/><text fill="#000000" font-family="sans-serif" font-size="14" lengthAdjust="spacing" textLength="31.1309" x="181.1992" y="295.7285">Libro</text><line style="stroke:#181818;stroke-width:0.5;" x1="8" x2="353.0293" y1="306" y2="306"/><text fill="#000000" font-family="sans-serif" font-size="14" lengthAdjust="spacing" textLength="78.5859" x="13" y="324.5332">-titulo: String</text><text fill="#000000" font-family="sans-serif" font-size="14" lengthAdjust="spacing" textLength="80.9238" x="13" y="342.1426">-autor: String</text><text fill="#000000" font-family="sans-serif" font-size="14" lengthAdjust="spacing" textLength="125.3164" x="13" y="359.752">-disponible: boolean</text><line style="stroke:#181818;stroke-width:0.5;" x1="8" x2="353.0293" y1="366.8281" y2="366.8281"/><text fill="#000000" font-family="sans-serif" font-size="14" lengthAdjust="spacing" textLength="48.6309" x="13" y="385.3613">+Libro()</text><text fill="#000000" font-family="sans-serif" font-size="14" lengthAdjust="spacing" textLength="206.5957" x="13" y="402.9707">+Libro(titulo: String, autor: String)</text><text fill="#000000" font-family="sans-serif" font-size="14" lengthAdjust="spacing" textLength="335.0293" x="13" y="420.5801">+Libro(titulo: String, autor: String, disponible: boolean)</text><text fill="#000000" font-family="sans-serif" font-size="14" lengthAdjust="spacing" textLength="115.5479" x="13" y="438.1895">+getTitulo(): String</text><text fill="#000000" font-family="sans-serif" font-size="14" lengthAdjust="spacing" textLength="114.7754" x="13" y="455.7988">+getAutor(): String</text><text fill="#000000" font-family="sans-serif" font-size="14" lengthAdjust="spacing" textLength="150.5889" x="13" y="473.4082">+isDisponible(): boolean</text><text fill="#000000" font-family="sans-serif" font-size="14" lengthAdjust="spacing" textLength="177.7959" x="13" y="491.0176">+setTitulo(titulo: String): void</text><text fill="#000000" font-family="sans-serif" font-size="14" lengthAdjust="spacing" textLength="179.3613" x="13" y="508.627">+setAutor(autor: String): void</text><text fill="#000000" font-family="sans-serif" font-size="14" lengthAdjust="spacing" textLength="255.6641" x="13" y="526.2363">+setDisponible(disponible: boolean): void</text><text fill="#000000" font-family="sans-serif" font-size="14" lengthAdjust="spacing" textLength="121.7617" x="13" y="543.8457">+mostrarInfo(): void</text><text fill="#000000" font-family="sans-serif" font-size="14" lengthAdjust="spacing" textLength="94.5342" x="13" y="561.4551">+prestar(): void</text><text fill="#000000" font-family="sans-serif" font-size="14" lengthAdjust="spacing" textLength="103.8789" x="13" y="579.0645">+devolver(): void</text></g><!--class Biblioteca--><g class="entity" data-entity="Biblioteca" data-source-line="47" data-uid="ent0003" id="entity_Biblioteca"><rect fill="#F1F1F1" height="188.875" rx="2.5" ry="2.5" style="stroke:#181818;stroke-width:0.5;" width="236.4922" x="62.5" y="7"/><ellipse cx="146.1445" cy="23" fill="#ADD1B2" rx="11" ry="11" style="stroke:#181818;stroke-width:1;"/><path d="M148.9102,18.875 Q149.0664,18.6563 149.2539,18.5469 Q149.4414,18.4375 149.6602,18.4375 Q150.0352,18.4375 150.2695,18.7031 Q150.5039,18.9531 150.5039,19.5625 L150.5039,21.0156 Q150.5039,21.625 150.2695,21.8906 Q150.0352,22.1563 149.6602,22.1563 Q149.3164,22.1563 149.1133,21.9531 Q148.9102,21.7656 148.8008,21.25 Q148.7539,20.8906 148.5664,20.7031 Q148.2383,20.3281 147.6289,20.1094 Q147.0195,19.8906 146.3945,19.8906 Q145.6289,19.8906 144.9883,20.2188 Q144.3633,20.5469 143.8633,21.2969 Q143.3789,22.0469 143.3789,23.0781 L143.3789,24.1719 Q143.3789,25.4063 144.2695,26.2344 Q145.1602,27.0469 146.7539,27.0469 Q147.6914,27.0469 148.3477,26.7969 Q148.7383,26.6406 149.1602,26.2031 Q149.4258,25.9375 149.5664,25.8594 Q149.7227,25.7813 149.9258,25.7813 Q150.2539,25.7813 150.5039,26.0469 Q150.7695,26.2969 150.7695,26.6406 Q150.7695,26.9844 150.4258,27.3906 Q149.9258,27.9688 149.1289,28.2969 Q148.0508,28.75 146.7539,28.75 Q145.2383,28.75 144.0352,28.125 Q143.0508,27.625 142.3633,26.5625 Q141.6758,25.4844 141.6758,24.2031 L141.6758,23.0469 Q141.6758,21.7188 142.2852,20.5781 Q142.9102,19.4219 144.0039,18.8125 Q145.0977,18.1875 146.332,18.1875 Q147.0664,18.1875 147.707,18.3594 Q148.3633,18.5156 148.9102,18.875 Z " fill="#000000"/><text fill="#000000" font-family="sans-serif" font-size="14" lengthAdjust="spacing" textLength="60.7031" x="166.6445" y="28.7285">Biblioteca</text><line style="stroke:#181818;stroke-width:0.5;" x1="63.5" x2="297.9922" y1="39" y2="39"/><text fill="#000000" font-family="sans-serif" font-size="14" lengthAdjust="spacing" textLength="96.4824" x="68.5" y="57.5332">-nombre: String</text><text fill="#000000" font-family="sans-serif" font-size="14" lengthAdjust="spacing" textLength="104.2822" x="68.5" y="75.1426">-catalogo: Libro[]</text><text fill="#000000" font-family="sans-serif" font-size="14" lengthAdjust="spacing" textLength="80.1582" x="68.5" y="92.752">-cantidad: int</text><line style="stroke:#181818;stroke-width:0.5;" x1="63.5" x2="297.9922" y1="99.8281" y2="99.8281"/><text fill="#000000" font-family="sans-serif" font-size="14" lengthAdjust="spacing" textLength="170.0234" x="68.5" y="118.3613">+Biblioteca(nombre: String)</text><text fill="#000000" font-family="sans-serif" font-size="14" lengthAdjust="spacing" textLength="131.1064" x="68.5" y="135.9707">+getNombre(): String</text><text fill="#000000" font-family="sans-serif" font-size="14" lengthAdjust="spacing" textLength="195.7129" x="68.5" y="153.5801">+agregarLibro(libro: Libro): void</text><text fill="#000000" font-family="sans-serif" font-size="14" lengthAdjust="spacing" textLength="154.4512" x="68.5" y="171.1895">+mostrarCatalogo(): void</text><text fill="#000000" font-family="sans-serif" font-size="14" lengthAdjust="spacing" textLength="224.4922" x="68.5" y="188.7988">+buscarPorAutor(autor: String): void</text></g><!--reverse link Biblioteca to Libro--><g class="link" data-entity-1="Biblioteca" data-entity-2="Libro" data-source-line="58" data-uid="lnk4" id="link_Biblioteca_Libro"><path codeLine="58" d="M180.5,208.06 C180.5,232.37 180.5,247.22 180.5,273.78" fill="none" id="Biblioteca-backto-Libro" style="stroke:#181818;stroke-width:1;"/><polygon fill="none" points="180.5,196.06,176.5,202.06,180.5,208.06,184.5,202.06,180.5,196.06" style="stroke:#181818;stroke-width:1;"/><text fill="#000000" font-family="sans-serif" font-size="13" lengthAdjust="spacing" textLength="40.479" x="181.5" y="240.4951">agrupa</text><text fill="#000000" font-family="sans-serif" font-size="13" lengthAdjust="spacing" textLength="7.23" x="173.222" y="217.4256">1</text><text fill="#000000" font-family="sans-serif" font-size="13" lengthAdjust="spacing" textLength="5.0591" x="175.3796" y="263.3258">*</text></g><!--SRC=[bLB1JeGm4Btp5GqdLfT4hznMlMnYZCbwCnwcK4cpfKEc0mUD_ouK5YXBJEo1fFDUtyoRXpjhMmD19N83pXsOISk6rJ57Uz9VIjn5aKV4ivQ4uZiItKa5QsuCPkBKyMqv5g5Xf5MjqAv6gwLHcP28He7roEqWcEo2MoYx3nN_GTrlzRsyBnM_-SV9BXZM8uTUvWhGxcdIwy7GYPi4mw4wOekwc5c3U6XgpLaqsl8Gq2jqJ417- -czB92Qb6EWLRLGBPfMpUMVIxeFNHUDh7AO8hPOILAhE7DWC5Xs5dqAxnzJtR8keCY4jZnscpMJK6iHn8i7hlOD9QaIQ4ZQzD-nuQR_nt6ebLlPk1pe5UcFjNSBM5YFxsE1QIhYctZytxD-bAQ6Nm00]--></g></svg>